<?xml version="1.0" encoding="UTF-8" standalone="no"?>
<svg
   xmlns:dc="http://purl.org/dc/elements/1.1/"
   xmlns:cc="http://creativecommons.org/ns#"
   xmlns:rdf="http://www.w3.org/1999/02/22-rdf-syntax-ns#"
   xmlns:svg="http://www.w3.org/2000/svg"
   xmlns="http://www.w3.org/2000/svg"
   xmlns:sodipodi="http://sodipodi.sourceforge.net/DTD/sodipodi-0.dtd"
   xmlns:inkscape="http://www.inkscape.org/namespaces/inkscape"
   viewBox="0 0 477.63 231.89"
   version="1.1"
   id="svg140"
   sodipodi:docname="turtle.svg"
   inkscape:version="0.92.2 5c3e80d, 2017-08-06">
  <metadata
     id="metadata146">
    <rdf:RDF>
      <cc:Work
         rdf:about="">
        <dc:format>image/svg+xml</dc:format>
        <dc:type
           rdf:resource="http://purl.org/dc/dcmitype/StillImage" />
      </cc:Work>
    </rdf:RDF>
  </metadata>
  <defs
     id="defs144" />
  <sodipodi:namedview
     pagecolor="#ffffff"
     bordercolor="#666666"
     borderopacity="1"
     objecttolerance="10"
     gridtolerance="10"
     guidetolerance="10"
     inkscape:pageopacity="0"
     inkscape:pageshadow="2"
     inkscape:window-width="1920"
     inkscape:window-height="1080"
     id="namedview142"
     showgrid="false"
     inkscape:zoom="0.59041517"
     inkscape:cx="201.55309"
     inkscape:cy="115.945"
     inkscape:window-x="0"
     inkscape:window-y="0"
     inkscape:window-maximized="0"
     inkscape:current-layer="svg140" />
  <g
     id="g4711"
     transform="matrix(1,0,0,-1,-0.00106063,232.39)">
    <g
       id="g108"
       style="stroke-width:4">
      <g
         id="g18"
         style="stroke-linecap:round;stroke-linejoin:round">
        <path
           id="path2"
           d="m 394.99,58.356 c -12.603,17.314 -35.146,25.706 -50.352,18.743 -15.205,-6.963 -17.315,-26.644 -4.7115,-43.958 12.603,-17.314 35.146,-25.706 50.352,-18.743 15.205,6.963 17.315,26.644 4.7115,43.958 z"
           inkscape:connector-curvature="0"
           style="fill:#698000;stroke:#000000" />
        <path
           id="path4"
           d="m 398.33,23.775 c 0.55795,7.7396 -2.1042,16.592 -8.1562,24.906 -12.597,17.305 -35.178,25.709 -50.375,18.75 -4.0749,-1.866 -7.1818,-4.657 -9.3438,-8.0625 0.59503,8.383 4.9383,15.442 12.844,19.062 15.198,6.9594 37.778,-1.4446 50.375,-18.75 9.2172,-12.662 10.553,-26.611 4.6562,-35.906 z"
           inkscape:connector-curvature="0"
           style="fill-opacity:0.31400003" />
        <path
           id="path6"
           d="m 83.859,55.689 c 12.603,17.314 35.146,25.706 50.352,18.743 15.205,-6.963 17.315,-26.644 4.7115,-43.958 C 126.3195,13.16 103.7765,4.768 88.5705,11.731 73.3655,18.694 71.2555,38.375 83.859,55.689 Z"
           inkscape:connector-curvature="0"
           style="fill:#698000;stroke:#000000" />
        <path
           id="path8"
           d="m 77.672,32.286 c -0.31268,7.5354 2.3551,16.05 8.1875,24.062 12.597,17.305 35.146,25.709 50.344,18.75 12.582,-5.7615 16.183,-20.239 9.9062,-34.875 -0.36264,8.7394 -4.7454,16.138 -12.906,19.875 -15.198,6.9594 -37.747,-1.4446 -50.344,-18.75 -2.1682,-2.9787 -3.8825,-6.0194 -5.1875,-9.0625 z"
           inkscape:connector-curvature="0"
           style="fill-opacity:0.31400003" />
        <g
           id="g14"
           style="stroke:#000000">
          <path
             id="path10"
             d="m 364.77,97.372 c 0,52.673 -57.074,95.372 -127.48,95.372 -70.404,0 -127.48,-42.7 -127.48,-95.372 C 109.81,44.699 166.884,2 237.29,2 307.694,2 364.77,44.7 364.77,97.372 Z"
             inkscape:connector-curvature="0"
             style="fill:#004000" />
          <path
             id="path12"
             d="m 110.16,90.625 c -0.20831,2.2293 -0.34375,4.4811 -0.34375,6.75 0,52.673 57.064,95.375 127.47,95.375 70.404,0 127.5,-42.702 127.5,-95.375 0,-2.2689 -0.13544,-4.5207 -0.34375,-6.75 -4.6275,49.524 -59.785,88.625 -127.16,88.625 -67.372,-2e-5 -122.5,-39.102 -127.12,-88.625 z"
             inkscape:connector-curvature="0"
             style="fill:#808000" />
        </g>
        <path
           id="path16"
           d="m 354.38,59.64 c 1.8864,6.5232 2.9062,13.275 2.9062,20.219 0,52.646 -57.132,95.375 -127.5,95.375 -52.451,1e-5 -97.504,-23.734 -117.06,-57.625 12.422,42.929 63.482,75.125 124.56,75.125 70.368,0 127.5,-42.729 127.5,-95.375 0,-13.405 -3.7251,-26.142 -10.406,-37.719 z"
           inkscape:connector-curvature="0"
           style="fill-opacity:0.31400003" />
      </g>
      <g
         id="g28"
         style="stroke:#000000">
        <path
           id="path20"
           d="m 328.22,134.29 c 20.5,15.5 95.5,-28.5 131.5,-14 36,14.5 -59.5,82.5 -113.5,74.5 -54,-8 -37,-50.5 -37,-50.5 7.5543,-16.997 19,-10 19,-10 z"
           transform="rotate(-24.231,387.16,156.38)"
           inkscape:connector-curvature="0"
           style="fill:#698000;fill-rule:evenodd" />
        <g
           id="g26"
           style="stroke-linecap:round;stroke-linejoin:round">
          <path
             id="path22"
             d="m 298.68,164.23 c 0,33.186 -50.19,65.156 -60.119,65.156 -10.557,0 -60.119,-31.97 -60.119,-65.156 0,-33.186 26.933,-60.119 60.119,-60.119 33.186,0 60.119,26.933 60.119,60.119 z"
             inkscape:connector-curvature="0"
             style="fill:#698000" />
          <path
             id="path24"
             d="m 238.8,160.48 c 0,9.7349 -7.8917,17.627 -17.627,17.627 -9.7349,0 -17.627,-7.8917 -17.627,-17.627 0,-9.7349 7.8917,-17.627 17.627,-17.627 9.7349,0 17.627,7.8917 17.627,17.627 z"
             inkscape:connector-curvature="0"
             style="fill:#ffffff" />
        </g>
      </g>
      <g
         id="g36"
         style="stroke-linecap:round;stroke-linejoin:round">
        <path
           id="path30"
           d="m 226.88,162.12 c 0,3.1291 -2.5366,5.6657 -5.6657,5.6657 -3.1291,0 -5.6657,-2.5366 -5.6657,-5.6657 0,-3.1291 2.5366,-5.6657 5.6657,-5.6657 3.1291,0 5.6657,2.5366 5.6657,5.6657 z"
           inkscape:connector-curvature="0" />
        <path
           id="path32"
           d="m 298.1,151.64 c 0.037,0.86101 0.063,1.724 0.063,2.594 0,33.186 -50.165,65.156 -60.094,65.156 -9.457,0 -50.232,-25.644 -58.625,-54.844 -0.003,0.23 0,0.457 0,0.68799 0,33.186 49.568,65.156 60.125,65.156 9.929,0 60.094,-31.97 60.094,-65.156 0,-4.674 -0.552,-9.226 -1.563,-13.594 z"
           inkscape:connector-curvature="0"
           style="fill-opacity:0.31400003" />
        <path
           id="path34"
           d="m 216.44,188.79 c -4.112,0.004 -9.3404,2.7653 -11.137,6.6986 4.4264,3.7998 9.2723,6.2941 10.976,6.2941 1.6345,0 6.6412,-2.6061 11.168,-6.5404 -1.8621,-3.7998 -6.8941,-6.4554 -11.006,-6.4524 z"
           transform="rotate(1.5024,216.37,195.28)"
           inkscape:connector-curvature="0"
           style="fill:#808000;stroke:#000000" />
      </g>
      <g
         id="g44"
         style="fill-rule:evenodd">
        <path
           id="path38"
           d="m 466.36,122.43 c -12.081,24.848 -78.005,63.518 -119.47,57.375 -14.586,-2.161 -23.978,-6.852 -29.937,-12.531 -5.861,-14.242 0.48202,-23.753 0.48202,-23.753 5.208,-11.717 14.042,-7.432 17.924,-6.497 v -1.969 c -2.521,-0.524 -4.7,-1.413 -6.469,-2.75 0,0 -2.184,-1.354 -5.281,-1.438 -0.24899,-0.006 -0.48999,-0.011 -0.75,0 -3.9,0.16501 -8.985,2.475 -12.969,11.438 0,0 -1.258,3.177 -2,7.937 -0.058,0.37601 -0.10501,0.76201 -0.15601,1.157 -0.058,0.44701 -0.10998,0.87401 -0.15601,1.343 -0.087,0.88 -0.155,1.803 -0.18799,2.75 -0.016,0.46201 -0.031,0.931 -0.031,1.407 0,0.49501 0.012,0.992 0.031,1.5 0.016,0.408 0.033,0.804 0.063,1.218 0.077,1.107 0.216,2.231 0.40601,3.375 0.062,0.375 0.11099,0.748 0.18701,1.125 0.045,0.222 0.107,0.435 0.15698,0.657 0.083,0.371 0.18402,0.752 0.28101,1.125 0.057,0.21901 0.125,0.43701 0.18701,0.65601 0.062,0.216 0.12201,0.44 0.18799,0.65601 0.054,0.17799 0.098,0.35399 0.15601,0.53099 0.12701,0.38901 0.26199,0.768 0.40601,1.157 0.23099,0.625 0.47198,1.252 0.75,1.875 0.285,0.636 0.60001,1.244 0.93799,1.875 0.323,0.602 0.68701,1.218 1.062,1.812 0.037,0.058 0.057,0.12999 0.094,0.18799 0.293,0.45601 0.61301,0.893 0.93799,1.343 0.121,0.16901 0.24802,0.33301 0.375,0.5 0.40302,0.53601 0.828,1.071 1.281,1.594 0.509,0.58899 1.05,1.148 1.625,1.719 1.144,1.135 2.419,2.233 3.844,3.281 1.382,1.018 2.921,1.993 4.593,2.906 0.11499,0.063 0.229,0.12601 0.34399,0.188 0.801,0.42799 1.63,0.849 2.5,1.25 5.091,2.348 11.358,4.224 19.125,5.375 49.936,7.398 135.36,-50.198 119.47,-70.375 z"
           transform="rotate(-24.526,387.83,157.94)"
           inkscape:connector-curvature="0"
           style="fill-opacity:0.31400003" />
        <path
           id="path40"
           d="m 150.08,134.96 c -20.5,15.5 -95.5,-28.5 -131.5,-14 -36,14.5 59.5,82.5 113.5,74.5 54,-8 37,-50.5 37,-50.5 -7.554,-16.997 -19,-10 -19,-10 z"
           transform="rotate(25.87,91.14,157.05)"
           inkscape:connector-curvature="0"
           style="fill:#698000;stroke:#000000" />
        <path
           id="path42"
           d="m 11.952,125.01 c 12.046,24.848 77.778,63.518 119.12,57.375 27.931,-4.15 36.808,-17.593 38.886,-29.563 1.9762,12.696 0.26523,36.746 -38.886,42.563 -49.791,7.398 -134.97,-50.198 -119.12,-70.375 z"
           transform="rotate(26.797,90.252,160.52)"
           inkscape:connector-curvature="0"
           style="fill-opacity:0.31400003" />
      </g>
      <g
         id="g60"
         style="fill:#ffffff;stroke:#000000">
        <g
           id="g56"
           style="fill-rule:evenodd">
          <path
             id="path46"
             d="m 221.22,86.627 65,-2 14,-31.5 -41.5,-28 -44,32 z"
             inkscape:connector-curvature="0"
             style="fill-opacity:0.15700001" />
          <path
             id="path48"
             d="m 153.07,25.828 c -14.943,9.8541 -26.798,22.269 -34.281,36.344 l 10.969,20 30.75,-13.906 -4.3125,-42.281 -3.125,-0.1562 z"
             inkscape:connector-curvature="0"
             style="fill-opacity:0.19599998" />
          <g
             id="g54"
             style="fill-opacity:0.078">
            <path
               id="path50"
               d="m 273.22,35.127 26.5,17.5 14,-6.5 -8,-20 -25,-8 z"
               inkscape:connector-curvature="0" />
            <path
               id="path52"
               d="m 129.22,83.625 -14.5,17 4.4062,19.031 c 1.4678,2.7132 3.0922,5.3552 4.875,7.9375 l 28.719,8.5312 -1,-27.5 -22.5,-25 z"
               inkscape:connector-curvature="0" />
          </g>
        </g>
        <path
           id="path58"
           d="m 274.7,161.48 c 0,9.735 -7.891,17.627 -17.626,17.627 -9.735,0 -17.627,-7.892 -17.627,-17.627 0,-9.735 7.892,-17.627 17.627,-17.627 9.735,0 17.626,7.892 17.626,17.627 z"
           inkscape:connector-curvature="0"
           style="stroke-linecap:round;stroke-linejoin:round" />
      </g>
      <path
         id="path62"
         d="m 260.88,162.12 c 0,3.1291 -2.5366,5.6657 -5.6657,5.6657 -3.1291,0 -5.6657,-2.5366 -5.6657,-5.6657 0,-3.1291 2.5366,-5.6657 5.6657,-5.6657 3.1291,0 5.6657,2.5366 5.6657,5.6657 z"
         inkscape:connector-curvature="0"
         style="stroke-linecap:round;stroke-linejoin:round" />
      <g
         id="g72"
         style="fill:#ffffff;fill-rule:evenodd;stroke:#000000">
        <g
           id="g68"
           style="fill-opacity:0.078">
          <path
             id="path64"
             d="m 318,127.89 28,-7 -11.5,-37 -24.5,-1.5 -16.5,20 z"
             inkscape:connector-curvature="0" />
          <path
             id="path66"
             d="m 220,86.39 -27,19 -16,-12.5 13,-31.5 24.5,-4.5 z"
             inkscape:connector-curvature="0" />
        </g>
        <path
           id="path70"
           d="m 234,2.0312 c -17.05,0.32318 -33.246,3.1721 -48,8.0312 l -4,14.812 33.5,8 27,-23 -8.2188,-7.8438 c -0.0938,0.00162 -0.18755,-0.00178 -0.28125,0 z"
           inkscape:connector-curvature="0"
           style="fill-opacity:0.11799999" />
      </g>
      <g
         id="g106"
         style="stroke-dasharray:none">
        <g
           id="g78"
           stroke-linejoin="null"
           stroke-linecap="null"
           style="fill:none">
          <ellipse
             id="ellipse74"
             ry="24"
             rx="46"
             cy="160.11"
             cx="242.37"
             style="stroke:#d11010" />
          <ellipse
             id="ellipse76"
             ry="24.5"
             rx="46"
             cy="162.11"
             cx="240.37"
             transform="rotate(-4.6107,240.37,162.11)"
             style="stroke:#ff0000" />
        </g>
        <g
           id="g104"
           style="stroke-linecap:round;stroke-linejoin:round">
          <g
             id="g84"
             style="stroke:#000000">
            <ellipse
               id="ellipse80"
               ry="39.051998"
               rx="4.9313002"
               cy="158.17999"
               cx="187.45"
               transform="rotate(-8.8807,187.45,158.18)"
               style="fill:#ff0000" />
            <ellipse
               id="ellipse82"
               ry="6"
               cy="114.11"
               cx="181.37"
               rx="0"
               style="fill:#808000" />
          </g>
          <ellipse
             id="ellipse86"
             ry="22.75"
             rx="43"
             cy="161.36"
             cx="239.87"
             transform="rotate(-4.1289,239.87,161.36)"
             style="opacity:0.45;fill:#ffffff" />
          <g
             id="g102"
             style="fill:#ff0000;stroke:#000000">
            <circle
               id="ellipse88"
               cy="124.36"
               cx="182.62"
               r="5.75" />
            <circle
               id="ellipse90"
               cy="132.61"
               cx="201.37"
               r="0"
               style="opacity:0.49000005" />
            <circle
               id="ellipse92"
               cy="127.11"
               cx="201.87"
               r="0"
               style="opacity:0.49000005" />
            <ellipse
               id="ellipse94"
               ry="0.5"
               cy="131.61"
               cx="207.37"
               rx="0"
               style="opacity:0.49000005" />
            <ellipse
               id="ellipse96"
               ry="1"
               cy="139.11"
               cx="202.87"
               rx="0"
               style="opacity:0.49000005" />
            <circle
               id="ellipse98"
               cy="129.61"
               cx="201.87"
               r="0"
               style="opacity:0.49000005" />
            <ellipse
               id="ellipse100"
               ry="1.5"
               cy="96.110001"
               cx="326.87"
               rx="0"
               style="opacity:0.49000005" />
          </g>
        </g>
      </g>
    </g>
    <g
       id="g138"
       style="stroke-linecap:round;stroke-linejoin:round;stroke-dasharray:none">
      <ellipse
         id="ellipse110"
         ry="1.625"
         rx="2.75"
         cy="122.74"
         cx="182.62"
         style="fill:#ff0000;stroke:#000000;stroke-width:2" />
      <g
         id="g136"
         style="stroke-width:4">
        <ellipse
           id="ellipse112"
           ry="15.411"
           rx="4.8108001"
           cy="197.24001"
           cx="205.22"
           transform="rotate(-63.128,205.22,197.24)"
           style="fill:#ff0000;stroke:#000000" />
        <g
           id="g134"
           style="fill:none">
          <line
             id="line114"
             y2="192.21001"
             y1="184.67999"
             x2="194.08"
             x1="191.13"
             style="stroke:#000000" />
          <g
             id="g132"
             style="stroke:#ff0000">
            <line
               id="line116"
               y2="187.82001"
               y1="180.78"
               x2="191.7"
               x1="190.94" />
            <line
               id="line118"
               y2="194.67999"
               y1="187.63"
               x2="195.32001"
               x1="194.56"
               transform="rotate(-45,194.94,191.16)" />
            <line
               id="line120"
               y2="196.85001"
               y1="189.8"
               x2="200.09"
               x1="198.50999"
               transform="rotate(-49.485,199.3,193.32)" />
            <line
               id="line122"
               y2="195.64"
               y1="187.67"
               x2="198"
               x1="195.38"
               transform="rotate(-40.484,196.69,191.65)" />
            <line
               id="line124"
               y2="190.97"
               y1="188.3"
               x2="193.50999"
               x1="192.27"
               transform="rotate(-27.457,192.89,189.63)" />
            <line
               id="line126"
               y2="190.11"
               y1="187.44"
               x2="193.37"
               x1="192.13"
               transform="rotate(-3.946,192.75,188.78)" />
            <line
               id="line128"
               y2="187.82001"
               y1="185.16"
               x2="192.41"
               x1="191.17999"
               transform="rotate(12.804,191.8,186.49)" />
            <line
               id="line130"
               y2="188.2"
               y1="171.34"
               x2="190.71001"
               x1="189.47"
               transform="rotate(-3.8881,190.09,179.77)" />
          </g>
        </g>
      </g>
    </g>
  </g>
</svg>
